<svg xmlns="http://www.w3.org/2000/svg" viewBox="0 0 1024 1024" width="1024" height="1024"><rect width="1024" height="1024" rx="61.44" fill="#fbf3ea"/><path d="M231.85 77.28h19.32v19.32h-19.32zM289.81 77.28h19.32v19.32h-19.32zM309.13 77.28h19.32v19.32h-19.32zM347.77 77.28h19.32v19.32h-19.32zM463.70 77.28h19.32v19.32h-19.32zM502.34 77.28h19.32v19.32h-19.32zM521.66 77.28h19.32v19.32h-19.32zM540.98 77.28h19.32v19.32h-19.32zM560.30 77.28h19.32v19.32h-19.32zM598.94 77.28h19.32v19.32h-19.32zM637.58 77.28h19.32v19.32h-19.32zM656.91 77.28h19.32v19.32h-19.32zM714.87 77.28h19.32v19.32h-19.32zM772.83 77.28h19.32v19.32h-19.32zM231.85 96.60h19.32v19.32h-19.32zM270.49 96.60h19.32v19.32h-19.32zM386.42 96.60h19.32v19.32h-19.32zM405.74 96.60h19.32v19.32h-19.32zM463.70 96.60h19.32v19.32h-19.32zM483.02 96.60h19.32v19.32h-19.32zM502.34 96.60h19.32v19.32h-19.32zM521.66 96.60h19.32v19.32h-19.32zM579.62 96.60h19.32v19.32h-19.32zM598.94 96.60h19.32v19.32h-19.32zM618.26 96.60h19.32v19.32h-19.32zM676.23 96.60h19.32v19.32h-19.32zM695.55 96.60h19.32v19.32h-19.32zM714.87 96.60h19.32v19.32h-19.32zM753.51 96.60h19.32v19.32h-19.32zM231.85 115.92h19.32v19.32h-19.32zM289.81 115.92h19.32v19.32h-19.32zM309.13 115.92h19.32v19.32h-19.32zM386.42 115.92h19.32v19.32h-19.32zM405.74 115.92h19.32v19.32h-19.32zM444.38 115.92h19.32v19.32h-19.32zM463.70 115.92h19.32v19.32h-19.32zM483.02 115.92h19.32v19.32h-19.32zM502.34 115.92h19.32v19.32h-19.32zM540.98 115.92h19.32v19.32h-19.32zM560.30 115.92h19.32v19.32h-19.32zM714.87 115.92h19.32v19.32h-19.32zM753.51 115.92h19.32v19.32h-19.32zM251.17 135.25h19.32v19.32h-19.32zM270.49 135.25h19.32v19.32h-19.32zM289.81 135.25h19.32v19.32h-19.32zM309.13 135.25h19.32v19.32h-19.32zM405.74 135.25h19.32v19.32h-19.32zM425.06 135.25h19.32v19.32h-19.32zM560.30 135.25h19.32v19.32h-19.32zM598.94 135.25h19.32v19.32h-19.32zM637.58 135.25h19.32v19.32h-19.32zM656.91 135.25h19.32v19.32h-19.32zM753.51 135.25h19.32v19.32h-19.32zM772.83 135.25h19.32v19.32h-19.32zM251.17 154.57h19.32v19.32h-19.32zM309.13 154.57h19.32v19.32h-19.32zM328.45 154.57h19.32v19.32h-19.32zM386.42 154.57h19.32v19.32h-19.32zM425.06 154.57h19.32v19.32h-19.32zM444.38 154.57h19.32v19.32h-19.32zM463.70 154.57h19.32v19.32h-19.32zM483.02 154.57h19.32v19.32h-19.32zM502.34 154.57h19.32v19.32h-19.32zM521.66 154.57h19.32v19.32h-19.32zM540.98 154.57h19.32v19.32h-19.32zM560.30 154.57h19.32v19.32h-19.32zM618.26 154.57h19.32v19.32h-19.32zM637.58 154.57h19.32v19.32h-19.32zM656.91 154.57h19.32v19.32h-19.32zM676.23 154.57h19.32v19.32h-19.32zM695.55 154.57h19.32v19.32h-19.32zM734.19 154.57h19.32v19.32h-19.32zM753.51 154.57h19.32v19.32h-19.32zM772.83 154.57h19.32v19.32h-19.32zM231.85 173.89h19.32v19.32h-19.32zM309.13 173.89h19.32v19.32h-19.32zM347.77 173.89h19.32v19.32h-19.32zM405.74 173.89h19.32v19.32h-19.32zM425.06 173.89h19.32v19.32h-19.32zM444.38 173.89h19.32v19.32h-19.32zM463.70 173.89h19.32v19.32h-19.32zM540.98 173.89h19.32v19.32h-19.32zM579.62 173.89h19.32v19.32h-19.32zM676.23 173.89h19.32v19.32h-19.32zM714.87 173.89h19.32v19.32h-19.32zM231.85 193.21h19.32v19.32h-19.32zM270.49 193.21h19.32v19.32h-19.32zM309.13 193.21h19.32v19.32h-19.32zM347.77 193.21h19.32v19.32h-19.32zM386.42 193.21h19.32v19.32h-19.32zM425.06 193.21h19.32v19.32h-19.32zM463.70 193.21h19.32v19.32h-19.32zM502.34 193.21h19.32v19.32h-19.32zM540.98 193.21h19.32v19.32h-19.32zM579.62 193.21h19.32v19.32h-19.32zM618.26 193.21h19.32v19.32h-19.32zM656.91 193.21h19.32v19.32h-19.32zM695.55 193.21h19.32v19.32h-19.32zM734.19 193.21h19.32v19.32h-19.32zM772.83 193.21h19.32v19.32h-19.32zM231.85 212.53h19.32v19.32h-19.32zM270.49 212.53h19.32v19.32h-19.32zM309.13 212.53h19.32v19.32h-19.32zM328.45 212.53h19.32v19.32h-19.32zM347.77 212.53h19.32v19.32h-19.32zM367.09 212.53h19.32v19.32h-19.32zM386.42 212.53h19.32v19.32h-19.32zM425.06 212.53h19.32v19.32h-19.32zM463.70 212.53h19.32v19.32h-19.32zM540.98 212.53h19.32v19.32h-19.32zM560.30 212.53h19.32v19.32h-19.32zM598.94 212.53h19.32v19.32h-19.32zM618.26 212.53h19.32v19.32h-19.32zM695.55 212.53h19.32v19.32h-19.32zM734.19 212.53h19.32v19.32h-19.32zM753.51 212.53h19.32v19.32h-19.32zM115.92 231.85h19.32v19.32h-19.32zM135.25 231.85h19.32v19.32h-19.32zM154.57 231.85h19.32v19.32h-19.32zM193.21 231.85h19.32v19.32h-19.32zM231.85 231.85h19.32v19.32h-19.32zM251.17 231.85h19.32v19.32h-19.32zM289.81 231.85h19.32v19.32h-19.32zM309.13 231.85h19.32v19.32h-19.32zM347.77 231.85h19.32v19.32h-19.32zM386.42 231.85h19.32v19.32h-19.32zM405.74 231.85h19.32v19.32h-19.32zM425.06 231.85h19.32v19.32h-19.32zM444.38 231.85h19.32v19.32h-19.32zM463.70 231.85h19.32v19.32h-19.32zM483.02 231.85h19.32v19.32h-19.32zM502.34 231.85h19.32v19.32h-19.32zM521.66 231.85h19.32v19.32h-19.32zM540.98 231.85h19.32v19.32h-19.32zM656.91 231.85h19.32v19.32h-19.32zM676.23 231.85h19.32v19.32h-19.32zM734.19 231.85h19.32v19.32h-19.32zM753.51 231.85h19.32v19.32h-19.32zM792.15 231.85h19.32v19.32h-19.32zM811.47 231.85h19.32v19.32h-19.32zM830.79 231.85h19.32v19.32h-19.32zM888.75 231.85h19.32v19.32h-19.32zM908.08 231.85h19.32v19.32h-19.32zM927.40 231.85h19.32v19.32h-19.32zM96.60 251.17h19.32v19.32h-19.32zM115.92 251.17h19.32v19.32h-19.32zM135.25 251.17h19.32v19.32h-19.32zM154.57 251.17h19.32v19.32h-19.32zM231.85 251.17h19.32v19.32h-19.32zM251.17 251.17h19.32v19.32h-19.32zM328.45 251.17h19.32v19.32h-19.32zM347.77 251.17h19.32v19.32h-19.32zM367.09 251.17h19.32v19.32h-19.32zM386.42 251.17h19.32v19.32h-19.32zM444.38 251.17h19.32v19.32h-19.32zM483.02 251.17h19.32v19.32h-19.32zM502.34 251.17h19.32v19.32h-19.32zM540.98 251.17h19.32v19.32h-19.32zM560.30 251.17h19.32v19.32h-19.32zM579.62 251.17h19.32v19.32h-19.32zM637.58 251.17h19.32v19.32h-19.32zM656.91 251.17h19.32v19.32h-19.32zM714.87 251.17h19.32v19.32h-19.32zM753.51 251.17h19.32v19.32h-19.32zM772.83 251.17h19.32v19.32h-19.32zM792.15 251.17h19.32v19.32h-19.32zM869.43 251.17h19.32v19.32h-19.32zM888.75 251.17h19.32v19.32h-19.32zM927.40 251.17h19.32v19.32h-19.32zM115.92 270.49h19.32v19.32h-19.32zM135.25 270.49h19.32v19.32h-19.32zM173.89 270.49h19.32v19.32h-19.32zM193.21 270.49h19.32v19.32h-19.32zM212.53 270.49h19.32v19.32h-19.32zM251.17 270.49h19.32v19.32h-19.32zM270.49 270.49h19.32v19.32h-19.32zM289.81 270.49h19.32v19.32h-19.32zM328.45 270.49h19.32v19.32h-19.32zM347.77 270.49h19.32v19.32h-19.32zM405.74 270.49h19.32v19.32h-19.32zM483.02 270.49h19.32v19.32h-19.32zM521.66 270.49h19.32v19.32h-19.32zM540.98 270.49h19.32v19.32h-19.32zM618.26 270.49h19.32v19.32h-19.32zM637.58 270.49h19.32v19.32h-19.32zM714.87 270.49h19.32v19.32h-19.32zM734.19 270.49h19.32v19.32h-19.32zM753.51 270.49h19.32v19.32h-19.32zM772.83 270.49h19.32v19.32h-19.32zM811.47 270.49h19.32v19.32h-19.32zM850.11 270.49h19.32v19.32h-19.32zM888.75 270.49h19.32v19.32h-19.32zM96.60 289.81h19.32v19.32h-19.32zM115.92 289.81h19.32v19.32h-19.32zM135.25 289.81h19.32v19.32h-19.32zM154.57 289.81h19.32v19.32h-19.32zM251.17 289.81h19.32v19.32h-19.32zM328.45 289.81h19.32v19.32h-19.32zM347.77 289.81h19.32v19.32h-19.32zM367.09 289.81h19.32v19.32h-19.32zM386.42 289.81h19.32v19.32h-19.32zM425.06 289.81h19.32v19.32h-19.32zM463.70 289.81h19.32v19.32h-19.32zM483.02 289.81h19.32v19.32h-19.32zM502.34 289.81h19.32v19.32h-19.32zM540.98 289.81h19.32v19.32h-19.32zM598.94 289.81h19.32v19.32h-19.32zM637.58 289.81h19.32v19.32h-19.32zM695.55 289.81h19.32v19.32h-19.32zM714.87 289.81h19.32v19.32h-19.32zM734.19 289.81h19.32v19.32h-19.32zM753.51 289.81h19.32v19.32h-19.32zM850.11 289.81h19.32v19.32h-19.32zM869.43 289.81h19.32v19.32h-19.32zM888.75 289.81h19.32v19.32h-19.32zM908.08 289.81h19.32v19.32h-19.32zM927.40 289.81h19.32v19.32h-19.32zM77.28 309.13h19.32v19.32h-19.32zM96.60 309.13h19.32v19.32h-19.32zM173.89 309.13h19.32v19.32h-19.32zM193.21 309.13h19.32v19.32h-19.32zM231.85 309.13h19.32v19.32h-19.32zM251.17 309.13h19.32v19.32h-19.32zM270.49 309.13h19.32v19.32h-19.32zM386.42 309.13h19.32v19.32h-19.32zM425.06 309.13h19.32v19.32h-19.32zM463.70 309.13h19.32v19.32h-19.32zM483.02 309.13h19.32v19.32h-19.32zM540.98 309.13h19.32v19.32h-19.32zM598.94 309.13h19.32v19.32h-19.32zM637.58 309.13h19.32v19.32h-19.32zM676.23 309.13h19.32v19.32h-19.32zM714.87 309.13h19.32v19.32h-19.32zM115.92 328.45h19.32v19.32h-19.32zM135.25 328.45h19.32v19.32h-19.32zM154.57 328.45h19.32v19.32h-19.32zM173.89 328.45h19.32v19.32h-19.32zM212.53 328.45h19.32v19.32h-19.32zM231.85 328.45h19.32v19.32h-19.32zM289.81 328.45h19.32v19.32h-19.32zM309.13 328.45h19.32v19.32h-19.32zM347.77 328.45h19.32v19.32h-19.32zM367.09 328.45h19.32v19.32h-19.32zM425.06 328.45h19.32v19.32h-19.32zM444.38 328.45h19.32v19.32h-19.32zM463.70 328.45h19.32v19.32h-19.32zM579.62 328.45h19.32v19.32h-19.32zM598.94 328.45h19.32v19.32h-19.32zM618.26 328.45h19.32v19.32h-19.32zM637.58 328.45h19.32v19.32h-19.32zM656.91 328.45h19.32v19.32h-19.32zM676.23 328.45h19.32v19.32h-19.32zM695.55 328.45h19.32v19.32h-19.32zM753.51 328.45h19.32v19.32h-19.32zM772.83 328.45h19.32v19.32h-19.32zM792.15 328.45h19.32v19.32h-19.32zM850.11 328.45h19.32v19.32h-19.32zM908.08 328.45h19.32v19.32h-19.32zM96.60 347.77h19.32v19.32h-19.32zM135.25 347.77h19.32v19.32h-19.32zM154.57 347.77h19.32v19.32h-19.32zM193.21 347.77h19.32v19.32h-19.32zM212.53 347.77h19.32v19.32h-19.32zM251.17 347.77h19.32v19.32h-19.32zM289.81 347.77h19.32v19.32h-19.32zM309.13 347.77h19.32v19.32h-19.32zM367.09 347.77h19.32v19.32h-19.32zM405.74 347.77h19.32v19.32h-19.32zM425.06 347.77h19.32v19.32h-19.32zM444.38 347.77h19.32v19.32h-19.32zM540.98 347.77h19.32v19.32h-19.32zM560.30 347.77h19.32v19.32h-19.32zM598.94 347.77h19.32v19.32h-19.32zM637.58 347.77h19.32v19.32h-19.32zM676.23 347.77h19.32v19.32h-19.32zM734.19 347.77h19.32v19.32h-19.32zM753.51 347.77h19.32v19.32h-19.32zM772.83 347.77h19.32v19.32h-19.32zM792.15 347.77h19.32v19.32h-19.32zM811.47 347.77h19.32v19.32h-19.32zM830.79 347.77h19.32v19.32h-19.32zM888.75 347.77h19.32v19.32h-19.32zM908.08 347.77h19.32v19.32h-19.32zM77.28 367.09h19.32v19.32h-19.32zM115.92 367.09h19.32v19.32h-19.32zM173.89 367.09h19.32v19.32h-19.32zM231.85 367.09h19.32v19.32h-19.32zM251.17 367.09h19.32v19.32h-19.32zM309.13 367.09h19.32v19.32h-19.32zM386.42 367.09h19.32v19.32h-19.32zM405.74 367.09h19.32v19.32h-19.32zM463.70 367.09h19.32v19.32h-19.32zM579.62 367.09h19.32v19.32h-19.32zM598.94 367.09h19.32v19.32h-19.32zM637.58 367.09h19.32v19.32h-19.32zM695.55 367.09h19.32v19.32h-19.32zM734.19 367.09h19.32v19.32h-19.32zM792.15 367.09h19.32v19.32h-19.32zM850.11 367.09h19.32v19.32h-19.32zM869.43 367.09h19.32v19.32h-19.32zM888.75 367.09h19.32v19.32h-19.32zM908.08 367.09h19.32v19.32h-19.32zM927.40 367.09h19.32v19.32h-19.32zM77.28 386.42h19.32v19.32h-19.32zM96.60 386.42h19.32v19.32h-19.32zM154.57 386.42h19.32v19.32h-19.32zM173.89 386.42h19.32v19.32h-19.32zM193.21 386.42h19.32v19.32h-19.32zM231.85 386.42h19.32v19.32h-19.32zM251.17 386.42h19.32v19.32h-19.32zM270.49 386.42h19.32v19.32h-19.32zM309.13 386.42h19.32v19.32h-19.32zM328.45 386.42h19.32v19.32h-19.32zM347.77 386.42h19.32v19.32h-19.32zM386.42 386.42h19.32v19.32h-19.32zM425.06 386.42h19.32v19.32h-19.32zM483.02 386.42h19.32v19.32h-19.32zM540.98 386.42h19.32v19.32h-19.32zM560.30 386.42h19.32v19.32h-19.32zM598.94 386.42h19.32v19.32h-19.32zM676.23 386.42h19.32v19.32h-19.32zM714.87 386.42h19.32v19.32h-19.32zM734.19 386.42h19.32v19.32h-19.32zM792.15 386.42h19.32v19.32h-19.32zM811.47 386.42h19.32v19.32h-19.32zM869.43 386.42h19.32v19.32h-19.32zM908.08 386.42h19.32v19.32h-19.32zM927.40 386.42h19.32v19.32h-19.32zM77.28 405.74h19.32v19.32h-19.32zM115.92 405.74h19.32v19.32h-19.32zM231.85 405.74h19.32v19.32h-19.32zM251.17 405.74h19.32v19.32h-19.32zM309.13 405.74h19.32v19.32h-19.32zM347.77 405.74h19.32v19.32h-19.32zM618.26 405.74h19.32v19.32h-19.32zM637.58 405.74h19.32v19.32h-19.32zM695.55 405.74h19.32v19.32h-19.32zM753.51 405.74h19.32v19.32h-19.32zM772.83 405.74h19.32v19.32h-19.32zM792.15 405.74h19.32v19.32h-19.32zM888.75 405.74h19.32v19.32h-19.32zM908.08 405.74h19.32v19.32h-19.32zM927.40 405.74h19.32v19.32h-19.32zM77.28 425.06h19.32v19.32h-19.32zM96.60 425.06h19.32v19.32h-19.32zM115.92 425.06h19.32v19.32h-19.32zM135.25 425.06h19.32v19.32h-19.32zM154.57 425.06h19.32v19.32h-19.32zM173.89 425.06h19.32v19.32h-19.32zM193.21 425.06h19.32v19.32h-19.32zM251.17 425.06h19.32v19.32h-19.32zM270.49 425.06h19.32v19.32h-19.32zM289.81 425.06h19.32v19.32h-19.32zM309.13 425.06h19.32v19.32h-19.32zM347.77 425.06h19.32v19.32h-19.32zM618.26 425.06h19.32v19.32h-19.32zM656.91 425.06h19.32v19.32h-19.32zM676.23 425.06h19.32v19.32h-19.32zM695.55 425.06h19.32v19.32h-19.32zM734.19 425.06h19.32v19.32h-19.32zM772.83 425.06h19.32v19.32h-19.32zM811.47 425.06h19.32v19.32h-19.32zM888.75 425.06h19.32v19.32h-19.32zM908.08 425.06h19.32v19.32h-19.32zM115.92 444.38h19.32v19.32h-19.32zM135.25 444.38h19.32v19.32h-19.32zM231.85 444.38h19.32v19.32h-19.32zM270.49 444.38h19.32v19.32h-19.32zM289.81 444.38h19.32v19.32h-19.32zM328.45 444.38h19.32v19.32h-19.32zM367.09 444.38h19.32v19.32h-19.32zM386.42 444.38h19.32v19.32h-19.32zM618.26 444.38h19.32v19.32h-19.32zM656.91 444.38h19.32v19.32h-19.32zM695.55 444.38h19.32v19.32h-19.32zM714.87 444.38h19.32v19.32h-19.32zM753.51 444.38h19.32v19.32h-19.32zM772.83 444.38h19.32v19.32h-19.32zM830.79 444.38h19.32v19.32h-19.32zM850.11 444.38h19.32v19.32h-19.32zM869.43 444.38h19.32v19.32h-19.32zM888.75 444.38h19.32v19.32h-19.32zM908.08 444.38h19.32v19.32h-19.32zM927.40 444.38h19.32v19.32h-19.32zM77.28 463.70h19.32v19.32h-19.32zM96.60 463.70h19.32v19.32h-19.32zM135.25 463.70h19.32v19.32h-19.32zM154.57 463.70h19.32v19.32h-19.32zM173.89 463.70h19.32v19.32h-19.32zM193.21 463.70h19.32v19.32h-19.32zM212.53 463.70h19.32v19.32h-19.32zM231.85 463.70h19.32v19.32h-19.32zM251.17 463.70h19.32v19.32h-19.32zM328.45 463.70h19.32v19.32h-19.32zM347.77 463.70h19.32v19.32h-19.32zM386.42 463.70h19.32v19.32h-19.32zM637.58 463.70h19.32v19.32h-19.32zM656.91 463.70h19.32v19.32h-19.32zM676.23 463.70h19.32v19.32h-19.32zM772.83 463.70h19.32v19.32h-19.32zM792.15 463.70h19.32v19.32h-19.32zM811.47 463.70h19.32v19.32h-19.32zM830.79 463.70h19.32v19.32h-19.32zM850.11 463.70h19.32v19.32h-19.32zM77.28 483.02h19.32v19.32h-19.32zM154.57 483.02h19.32v19.32h-19.32zM231.85 483.02h19.32v19.32h-19.32zM251.17 483.02h19.32v19.32h-19.32zM270.49 483.02h19.32v19.32h-19.32zM309.13 483.02h19.32v19.32h-19.32zM347.77 483.02h19.32v19.32h-19.32zM367.09 483.02h19.32v19.32h-19.32zM618.26 483.02h19.32v19.32h-19.32zM656.91 483.02h19.32v19.32h-19.32zM676.23 483.02h19.32v19.32h-19.32zM753.51 483.02h19.32v19.32h-19.32zM772.83 483.02h19.32v19.32h-19.32zM850.11 483.02h19.32v19.32h-19.32zM869.43 483.02h19.32v19.32h-19.32zM888.75 483.02h19.32v19.32h-19.32zM927.40 483.02h19.32v19.32h-19.32zM96.60 502.34h19.32v19.32h-19.32zM115.92 502.34h19.32v19.32h-19.32zM154.57 502.34h19.32v19.32h-19.32zM193.21 502.34h19.32v19.32h-19.32zM231.85 502.34h19.32v19.32h-19.32zM270.49 502.34h19.32v19.32h-19.32zM328.45 502.34h19.32v19.32h-19.32zM618.26 502.34h19.32v19.32h-19.32zM637.58 502.34h19.32v19.32h-19.32zM656.91 502.34h19.32v19.32h-19.32zM695.55 502.34h19.32v19.32h-19.32zM734.19 502.34h19.32v19.32h-19.32zM772.83 502.34h19.32v19.32h-19.32zM811.47 502.34h19.32v19.32h-19.32zM850.11 502.34h19.32v19.32h-19.32zM869.43 502.34h19.32v19.32h-19.32zM888.75 502.34h19.32v19.32h-19.32zM908.08 502.34h19.32v19.32h-19.32zM154.57 521.66h19.32v19.32h-19.32zM231.85 521.66h19.32v19.32h-19.32zM251.17 521.66h19.32v19.32h-19.32zM270.49 521.66h19.32v19.32h-19.32zM309.13 521.66h19.32v19.32h-19.32zM328.45 521.66h19.32v19.32h-19.32zM347.77 521.66h19.32v19.32h-19.32zM386.42 521.66h19.32v19.32h-19.32zM618.26 521.66h19.32v19.32h-19.32zM637.58 521.66h19.32v19.32h-19.32zM695.55 521.66h19.32v19.32h-19.32zM714.87 521.66h19.32v19.32h-19.32zM772.83 521.66h19.32v19.32h-19.32zM850.11 521.66h19.32v19.32h-19.32zM869.43 521.66h19.32v19.32h-19.32zM888.75 521.66h19.32v19.32h-19.32zM927.40 521.66h19.32v19.32h-19.32zM96.60 540.98h19.32v19.32h-19.32zM135.25 540.98h19.32v19.32h-19.32zM154.57 540.98h19.32v19.32h-19.32zM173.89 540.98h19.32v19.32h-19.32zM193.21 540.98h19.32v19.32h-19.32zM212.53 540.98h19.32v19.32h-19.32zM231.85 540.98h19.32v19.32h-19.32zM270.49 540.98h19.32v19.32h-19.32zM309.13 540.98h19.32v19.32h-19.32zM328.45 540.98h19.32v19.32h-19.32zM637.58 540.98h19.32v19.32h-19.32zM676.23 540.98h19.32v19.32h-19.32zM714.87 540.98h19.32v19.32h-19.32zM734.19 540.98h19.32v19.32h-19.32zM772.83 540.98h19.32v19.32h-19.32zM792.15 540.98h19.32v19.32h-19.32zM811.47 540.98h19.32v19.32h-19.32zM830.79 540.98h19.32v19.32h-19.32zM850.11 540.98h19.32v19.32h-19.32zM869.43 540.98h19.32v19.32h-19.32zM908.08 540.98h19.32v19.32h-19.32zM927.40 540.98h19.32v19.32h-19.32zM96.60 560.30h19.32v19.32h-19.32zM135.25 560.30h19.32v19.32h-19.32zM154.57 560.30h19.32v19.32h-19.32zM173.89 560.30h19.32v19.32h-19.32zM251.17 560.30h19.32v19.32h-19.32zM328.45 560.30h19.32v19.32h-19.32zM347.77 560.30h19.32v19.32h-19.32zM367.09 560.30h19.32v19.32h-19.32zM386.42 560.30h19.32v19.32h-19.32zM637.58 560.30h19.32v19.32h-19.32zM656.91 560.30h19.32v19.32h-19.32zM695.55 560.30h19.32v19.32h-19.32zM753.51 560.30h19.32v19.32h-19.32zM772.83 560.30h19.32v19.32h-19.32zM811.47 560.30h19.32v19.32h-19.32zM869.43 560.30h19.32v19.32h-19.32zM908.08 560.30h19.32v19.32h-19.32zM927.40 560.30h19.32v19.32h-19.32zM96.60 579.62h19.32v19.32h-19.32zM115.92 579.62h19.32v19.32h-19.32zM154.57 579.62h19.32v19.32h-19.32zM193.21 579.62h19.32v19.32h-19.32zM212.53 579.62h19.32v19.32h-19.32zM231.85 579.62h19.32v19.32h-19.32zM289.81 579.62h19.32v19.32h-19.32zM618.26 579.62h19.32v19.32h-19.32zM637.58 579.62h19.32v19.32h-19.32zM656.91 579.62h19.32v19.32h-19.32zM714.87 579.62h19.32v19.32h-19.32zM734.19 579.62h19.32v19.32h-19.32zM753.51 579.62h19.32v19.32h-19.32zM772.83 579.62h19.32v19.32h-19.32zM830.79 579.62h19.32v19.32h-19.32zM850.11 579.62h19.32v19.32h-19.32zM869.43 579.62h19.32v19.32h-19.32zM908.08 579.62h19.32v19.32h-19.32zM77.28 598.94h19.32v19.32h-19.32zM96.60 598.94h19.32v19.32h-19.32zM135.25 598.94h19.32v19.32h-19.32zM212.53 598.94h19.32v19.32h-19.32zM231.85 598.94h19.32v19.32h-19.32zM270.49 598.94h19.32v19.32h-19.32zM309.13 598.94h19.32v19.32h-19.32zM328.45 598.94h19.32v19.32h-19.32zM367.09 598.94h19.32v19.32h-19.32zM618.26 598.94h19.32v19.32h-19.32zM637.58 598.94h19.32v19.32h-19.32zM676.23 598.94h19.32v19.32h-19.32zM695.55 598.94h19.32v19.32h-19.32zM734.19 598.94h19.32v19.32h-19.32zM753.51 598.94h19.32v19.32h-19.32zM811.47 598.94h19.32v19.32h-19.32zM850.11 598.94h19.32v19.32h-19.32zM888.75 598.94h19.32v19.32h-19.32zM908.08 598.94h19.32v19.32h-19.32zM927.40 598.94h19.32v19.32h-19.32zM77.28 618.26h19.32v19.32h-19.32zM96.60 618.26h19.32v19.32h-19.32zM173.89 618.26h19.32v19.32h-19.32zM193.21 618.26h19.32v19.32h-19.32zM212.53 618.26h19.32v19.32h-19.32zM231.85 618.26h19.32v19.32h-19.32zM251.17 618.26h19.32v19.32h-19.32zM309.13 618.26h19.32v19.32h-19.32zM328.45 618.26h19.32v19.32h-19.32zM347.77 618.26h19.32v19.32h-19.32zM367.09 618.26h19.32v19.32h-19.32zM386.42 618.26h19.32v19.32h-19.32zM405.74 618.26h19.32v19.32h-19.32zM425.06 618.26h19.32v19.32h-19.32zM444.38 618.26h19.32v19.32h-19.32zM463.70 618.26h19.32v19.32h-19.32zM502.34 618.26h19.32v19.32h-19.32zM560.30 618.26h19.32v19.32h-19.32zM637.58 618.26h19.32v19.32h-19.32zM676.23 618.26h19.32v19.32h-19.32zM734.19 618.26h19.32v19.32h-19.32zM850.11 618.26h19.32v19.32h-19.32zM869.43 618.26h19.32v19.32h-19.32zM115.92 637.58h19.32v19.32h-19.32zM212.53 637.58h19.32v19.32h-19.32zM270.49 637.58h19.32v19.32h-19.32zM309.13 637.58h19.32v19.32h-19.32zM347.77 637.58h19.32v19.32h-19.32zM367.09 637.58h19.32v19.32h-19.32zM405.74 637.58h19.32v19.32h-19.32zM483.02 637.58h19.32v19.32h-19.32zM521.66 637.58h19.32v19.32h-19.32zM540.98 637.58h19.32v19.32h-19.32zM560.30 637.58h19.32v19.32h-19.32zM579.62 637.58h19.32v19.32h-19.32zM598.94 637.58h19.32v19.32h-19.32zM637.58 637.58h19.32v19.32h-19.32zM656.91 637.58h19.32v19.32h-19.32zM676.23 637.58h19.32v19.32h-19.32zM772.83 637.58h19.32v19.32h-19.32zM811.47 637.58h19.32v19.32h-19.32zM869.43 637.58h19.32v19.32h-19.32zM888.75 637.58h19.32v19.32h-19.32zM908.08 637.58h19.32v19.32h-19.32zM927.40 637.58h19.32v19.32h-19.32zM96.60 656.91h19.32v19.32h-19.32zM193.21 656.91h19.32v19.32h-19.32zM212.53 656.91h19.32v19.32h-19.32zM251.17 656.91h19.32v19.32h-19.32zM270.49 656.91h19.32v19.32h-19.32zM309.13 656.91h19.32v19.32h-19.32zM328.45 656.91h19.32v19.32h-19.32zM347.77 656.91h19.32v19.32h-19.32zM386.42 656.91h19.32v19.32h-19.32zM405.74 656.91h19.32v19.32h-19.32zM444.38 656.91h19.32v19.32h-19.32zM483.02 656.91h19.32v19.32h-19.32zM502.34 656.91h19.32v19.32h-19.32zM656.91 656.91h19.32v19.32h-19.32zM676.23 656.91h19.32v19.32h-19.32zM695.55 656.91h19.32v19.32h-19.32zM734.19 656.91h19.32v19.32h-19.32zM792.15 656.91h19.32v19.32h-19.32zM830.79 656.91h19.32v19.32h-19.32zM869.43 656.91h19.32v19.32h-19.32zM888.75 656.91h19.32v19.32h-19.32zM908.08 656.91h19.32v19.32h-19.32zM77.28 676.23h19.32v19.32h-19.32zM115.92 676.23h19.32v19.32h-19.32zM135.25 676.23h19.32v19.32h-19.32zM251.17 676.23h19.32v19.32h-19.32zM270.49 676.23h19.32v19.32h-19.32zM309.13 676.23h19.32v19.32h-19.32zM405.74 676.23h19.32v19.32h-19.32zM425.06 676.23h19.32v19.32h-19.32zM463.70 676.23h19.32v19.32h-19.32zM483.02 676.23h19.32v19.32h-19.32zM502.34 676.23h19.32v19.32h-19.32zM579.62 676.23h19.32v19.32h-19.32zM598.94 676.23h19.32v19.32h-19.32zM618.26 676.23h19.32v19.32h-19.32zM695.55 676.23h19.32v19.32h-19.32zM753.51 676.23h19.32v19.32h-19.32zM772.83 676.23h19.32v19.32h-19.32zM811.47 676.23h19.32v19.32h-19.32zM869.43 676.23h19.32v19.32h-19.32zM888.75 676.23h19.32v19.32h-19.32zM154.57 695.55h19.32v19.32h-19.32zM173.89 695.55h19.32v19.32h-19.32zM193.21 695.55h19.32v19.32h-19.32zM212.53 695.55h19.32v19.32h-19.32zM270.49 695.55h19.32v19.32h-19.32zM289.81 695.55h19.32v19.32h-19.32zM309.13 695.55h19.32v19.32h-19.32zM328.45 695.55h19.32v19.32h-19.32zM347.77 695.55h19.32v19.32h-19.32zM386.42 695.55h19.32v19.32h-19.32zM405.74 695.55h19.32v19.32h-19.32zM425.06 695.55h19.32v19.32h-19.32zM463.70 695.55h19.32v19.32h-19.32zM521.66 695.55h19.32v19.32h-19.32zM540.98 695.55h19.32v19.32h-19.32zM579.62 695.55h19.32v19.32h-19.32zM598.94 695.55h19.32v19.32h-19.32zM618.26 695.55h19.32v19.32h-19.32zM656.91 695.55h19.32v19.32h-19.32zM676.23 695.55h19.32v19.32h-19.32zM830.79 695.55h19.32v19.32h-19.32zM850.11 695.55h19.32v19.32h-19.32zM869.43 695.55h19.32v19.32h-19.32zM908.08 695.55h19.32v19.32h-19.32zM77.28 714.87h19.32v19.32h-19.32zM96.60 714.87h19.32v19.32h-19.32zM154.57 714.87h19.32v19.32h-19.32zM173.89 714.87h19.32v19.32h-19.32zM212.53 714.87h19.32v19.32h-19.32zM251.17 714.87h19.32v19.32h-19.32zM270.49 714.87h19.32v19.32h-19.32zM289.81 714.87h19.32v19.32h-19.32zM309.13 714.87h19.32v19.32h-19.32zM328.45 714.87h19.32v19.32h-19.32zM347.77 714.87h19.32v19.32h-19.32zM367.09 714.87h19.32v19.32h-19.32zM405.74 714.87h19.32v19.32h-19.32zM425.06 714.87h19.32v19.32h-19.32zM463.70 714.87h19.32v19.32h-19.32zM483.02 714.87h19.32v19.32h-19.32zM502.34 714.87h19.32v19.32h-19.32zM521.66 714.87h19.32v19.32h-19.32zM540.98 714.87h19.32v19.32h-19.32zM579.62 714.87h19.32v19.32h-19.32zM598.94 714.87h19.32v19.32h-19.32zM637.58 714.87h19.32v19.32h-19.32zM656.91 714.87h19.32v19.32h-19.32zM676.23 714.87h19.32v19.32h-19.32zM753.51 714.87h19.32v19.32h-19.32zM772.83 714.87h19.32v19.32h-19.32zM792.15 714.87h19.32v19.32h-19.32zM830.79 714.87h19.32v19.32h-19.32zM869.43 714.87h19.32v19.32h-19.32zM888.75 714.87h19.32v19.32h-19.32zM927.40 714.87h19.32v19.32h-19.32zM154.57 734.19h19.32v19.32h-19.32zM193.21 734.19h19.32v19.32h-19.32zM251.17 734.19h19.32v19.32h-19.32zM309.13 734.19h19.32v19.32h-19.32zM386.42 734.19h19.32v19.32h-19.32zM405.74 734.19h19.32v19.32h-19.32zM425.06 734.19h19.32v19.32h-19.32zM483.02 734.19h19.32v19.32h-19.32zM521.66 734.19h19.32v19.32h-19.32zM540.98 734.19h19.32v19.32h-19.32zM560.30 734.19h19.32v19.32h-19.32zM579.62 734.19h19.32v19.32h-19.32zM618.26 734.19h19.32v19.32h-19.32zM695.55 734.19h19.32v19.32h-19.32zM714.87 734.19h19.32v19.32h-19.32zM734.19 734.19h19.32v19.32h-19.32zM772.83 734.19h19.32v19.32h-19.32zM792.15 734.19h19.32v19.32h-19.32zM830.79 734.19h19.32v19.32h-19.32zM850.11 734.19h19.32v19.32h-19.32zM888.75 734.19h19.32v19.32h-19.32zM96.60 753.51h19.32v19.32h-19.32zM115.92 753.51h19.32v19.32h-19.32zM135.25 753.51h19.32v19.32h-19.32zM154.57 753.51h19.32v19.32h-19.32zM270.49 753.51h19.32v19.32h-19.32zM309.13 753.51h19.32v19.32h-19.32zM367.09 753.51h19.32v19.32h-19.32zM463.70 753.51h19.32v19.32h-19.32zM540.98 753.51h19.32v19.32h-19.32zM695.55 753.51h19.32v19.32h-19.32zM714.87 753.51h19.32v19.32h-19.32zM753.51 753.51h19.32v19.32h-19.32zM811.47 753.51h19.32v19.32h-19.32zM830.79 753.51h19.32v19.32h-19.32zM869.43 753.51h19.32v19.32h-19.32zM888.75 753.51h19.32v19.32h-19.32zM908.08 753.51h19.32v19.32h-19.32zM927.40 753.51h19.32v19.32h-19.32zM77.28 772.83h19.32v19.32h-19.32zM135.25 772.83h19.32v19.32h-19.32zM154.57 772.83h19.32v19.32h-19.32zM193.21 772.83h19.32v19.32h-19.32zM212.53 772.83h19.32v19.32h-19.32zM251.17 772.83h19.32v19.32h-19.32zM270.49 772.83h19.32v19.32h-19.32zM289.81 772.83h19.32v19.32h-19.32zM309.13 772.83h19.32v19.32h-19.32zM328.45 772.83h19.32v19.32h-19.32zM367.09 772.83h19.32v19.32h-19.32zM405.74 772.83h19.32v19.32h-19.32zM444.38 772.83h19.32v19.32h-19.32zM463.70 772.83h19.32v19.32h-19.32zM483.02 772.83h19.32v19.32h-19.32zM502.34 772.83h19.32v19.32h-19.32zM521.66 772.83h19.32v19.32h-19.32zM540.98 772.83h19.32v19.32h-19.32zM579.62 772.83h19.32v19.32h-19.32zM598.94 772.83h19.32v19.32h-19.32zM618.26 772.83h19.32v19.32h-19.32zM656.91 772.83h19.32v19.32h-19.32zM734.19 772.83h19.32v19.32h-19.32zM772.83 772.83h19.32v19.32h-19.32zM792.15 772.83h19.32v19.32h-19.32zM811.47 772.83h19.32v19.32h-19.32zM830.79 772.83h19.32v19.32h-19.32zM850.11 772.83h19.32v19.32h-19.32zM869.43 772.83h19.32v19.32h-19.32zM908.08 772.83h19.32v19.32h-19.32zM927.40 772.83h19.32v19.32h-19.32zM231.85 792.15h19.32v19.32h-19.32zM270.49 792.15h19.32v19.32h-19.32zM289.81 792.15h19.32v19.32h-19.32zM328.45 792.15h19.32v19.32h-19.32zM405.74 792.15h19.32v19.32h-19.32zM463.70 792.15h19.32v19.32h-19.32zM540.98 792.15h19.32v19.32h-19.32zM598.94 792.15h19.32v19.32h-19.32zM695.55 792.15h19.32v19.32h-19.32zM753.51 792.15h19.32v19.32h-19.32zM772.83 792.15h19.32v19.32h-19.32zM850.11 792.15h19.32v19.32h-19.32zM927.40 792.15h19.32v19.32h-19.32zM251.17 811.47h19.32v19.32h-19.32zM309.13 811.47h19.32v19.32h-19.32zM328.45 811.47h19.32v19.32h-19.32zM347.77 811.47h19.32v19.32h-19.32zM367.09 811.47h19.32v19.32h-19.32zM386.42 811.47h19.32v19.32h-19.32zM425.06 811.47h19.32v19.32h-19.32zM444.38 811.47h19.32v19.32h-19.32zM463.70 811.47h19.32v19.32h-19.32zM502.34 811.47h19.32v19.32h-19.32zM540.98 811.47h19.32v19.32h-19.32zM579.62 811.47h19.32v19.32h-19.32zM598.94 811.47h19.32v19.32h-19.32zM714.87 811.47h19.32v19.32h-19.32zM734.19 811.47h19.32v19.32h-19.32zM772.83 811.47h19.32v19.32h-19.32zM811.47 811.47h19.32v19.32h-19.32zM850.11 811.47h19.32v19.32h-19.32zM888.75 811.47h19.32v19.32h-19.32zM908.08 811.47h19.32v19.32h-19.32zM270.49 830.79h19.32v19.32h-19.32zM367.09 830.79h19.32v19.32h-19.32zM386.42 830.79h19.32v19.32h-19.32zM463.70 830.79h19.32v19.32h-19.32zM540.98 830.79h19.32v19.32h-19.32zM560.30 830.79h19.32v19.32h-19.32zM579.62 830.79h19.32v19.32h-19.32zM637.58 830.79h19.32v19.32h-19.32zM695.55 830.79h19.32v19.32h-19.32zM714.87 830.79h19.32v19.32h-19.32zM753.51 830.79h19.32v19.32h-19.32zM772.83 830.79h19.32v19.32h-19.32zM850.11 830.79h19.32v19.32h-19.32zM888.75 830.79h19.32v19.32h-19.32zM908.08 830.79h19.32v19.32h-19.32zM231.85 850.11h19.32v19.32h-19.32zM251.17 850.11h19.32v19.32h-19.32zM289.81 850.11h19.32v19.32h-19.32zM347.77 850.11h19.32v19.32h-19.32zM367.09 850.11h19.32v19.32h-19.32zM386.42 850.11h19.32v19.32h-19.32zM425.06 850.11h19.32v19.32h-19.32zM444.38 850.11h19.32v19.32h-19.32zM463.70 850.11h19.32v19.32h-19.32zM483.02 850.11h19.32v19.32h-19.32zM502.34 850.11h19.32v19.32h-19.32zM521.66 850.11h19.32v19.32h-19.32zM540.98 850.11h19.32v19.32h-19.32zM560.30 850.11h19.32v19.32h-19.32zM618.26 850.11h19.32v19.32h-19.32zM676.23 850.11h19.32v19.32h-19.32zM714.87 850.11h19.32v19.32h-19.32zM734.19 850.11h19.32v19.32h-19.32zM753.51 850.11h19.32v19.32h-19.32zM772.83 850.11h19.32v19.32h-19.32zM792.15 850.11h19.32v19.32h-19.32zM811.47 850.11h19.32v19.32h-19.32zM830.79 850.11h19.32v19.32h-19.32zM850.11 850.11h19.32v19.32h-19.32zM231.85 869.43h19.32v19.32h-19.32zM309.13 869.43h19.32v19.32h-19.32zM328.45 869.43h19.32v19.32h-19.32zM367.09 869.43h19.32v19.32h-19.32zM463.70 869.43h19.32v19.32h-19.32zM483.02 869.43h19.32v19.32h-19.32zM540.98 869.43h19.32v19.32h-19.32zM579.62 869.43h19.32v19.32h-19.32zM598.94 869.43h19.32v19.32h-19.32zM618.26 869.43h19.32v19.32h-19.32zM637.58 869.43h19.32v19.32h-19.32zM676.23 869.43h19.32v19.32h-19.32zM714.87 869.43h19.32v19.32h-19.32zM753.51 869.43h19.32v19.32h-19.32zM850.11 869.43h19.32v19.32h-19.32zM888.75 869.43h19.32v19.32h-19.32zM908.08 869.43h19.32v19.32h-19.32zM927.40 869.43h19.32v19.32h-19.32zM231.85 888.75h19.32v19.32h-19.32zM270.49 888.75h19.32v19.32h-19.32zM309.13 888.75h19.32v19.32h-19.32zM328.45 888.75h19.32v19.32h-19.32zM347.77 888.75h19.32v19.32h-19.32zM367.09 888.75h19.32v19.32h-19.32zM405.74 888.75h19.32v19.32h-19.32zM425.06 888.75h19.32v19.32h-19.32zM444.38 888.75h19.32v19.32h-19.32zM463.70 888.75h19.32v19.32h-19.32zM483.02 888.75h19.32v19.32h-19.32zM521.66 888.75h19.32v19.32h-19.32zM540.98 888.75h19.32v19.32h-19.32zM560.30 888.75h19.32v19.32h-19.32zM579.62 888.75h19.32v19.32h-19.32zM598.94 888.75h19.32v19.32h-19.32zM618.26 888.75h19.32v19.32h-19.32zM656.91 888.75h19.32v19.32h-19.32zM714.87 888.75h19.32v19.32h-19.32zM734.19 888.75h19.32v19.32h-19.32zM753.51 888.75h19.32v19.32h-19.32zM772.83 888.75h19.32v19.32h-19.32zM792.15 888.75h19.32v19.32h-19.32zM811.47 888.75h19.32v19.32h-19.32zM869.43 888.75h19.32v19.32h-19.32zM251.17 908.08h19.32v19.32h-19.32zM328.45 908.08h19.32v19.32h-19.32zM425.06 908.08h19.32v19.32h-19.32zM521.66 908.08h19.32v19.32h-19.32zM579.62 908.08h19.32v19.32h-19.32zM618.26 908.08h19.32v19.32h-19.32zM656.91 908.08h19.32v19.32h-19.32zM676.23 908.08h19.32v19.32h-19.32zM695.55 908.08h19.32v19.32h-19.32zM734.19 908.08h19.32v19.32h-19.32zM753.51 908.08h19.32v19.32h-19.32zM772.83 908.08h19.32v19.32h-19.32zM850.11 908.08h19.32v19.32h-19.32zM869.43 908.08h19.32v19.32h-19.32zM888.75 908.08h19.32v19.32h-19.32zM367.09 927.40h19.32v19.32h-19.32zM386.42 927.40h19.32v19.32h-19.32zM405.74 927.40h19.32v19.32h-19.32zM425.06 927.40h19.32v19.32h-19.32zM444.38 927.40h19.32v19.32h-19.32zM463.70 927.40h19.32v19.32h-19.32zM483.02 927.40h19.32v19.32h-19.32zM502.34 927.40h19.32v19.32h-19.32zM521.66 927.40h19.32v19.32h-19.32zM579.62 927.40h19.32v19.32h-19.32zM637.58 927.40h19.32v19.32h-19.32zM676.23 927.40h19.32v19.32h-19.32zM734.19 927.40h19.32v19.32h-19.32zM792.15 927.40h19.32v19.32h-19.32zM811.47 927.40h19.32v19.32h-19.32zM850.11 927.40h19.32v19.32h-19.32zM908.08 927.40h19.32v19.32h-19.32z" fill="#1d1c19" shape-rendering="crispEdges"/><rect x="86.94339622641509" y="86.94339622641509" width="115.9245283018868" height="115.9245283018868" rx="30.91320754716981" fill="none" stroke="#1d1c19" stroke-width="19.32075471698113"/><rect x="115.9245283018868" y="115.9245283018868" width="57.9622641509434" height="57.9622641509434" rx="17.38867924528302" fill="#1d1c19"/><rect x="821.132075471698" y="86.94339622641509" width="115.9245283018868" height="115.9245283018868" rx="30.91320754716981" fill="none" stroke="#1d1c19" stroke-width="19.32075471698113"/><rect x="850.1132075471697" y="115.9245283018868" width="57.9622641509434" height="57.9622641509434" rx="17.38867924528302" fill="#1d1c19"/><rect x="86.94339622641509" y="821.132075471698" width="115.9245283018868" height="115.9245283018868" rx="30.91320754716981" fill="none" stroke="#1d1c19" stroke-width="19.32075471698113"/><rect x="115.9245283018868" y="850.1132075471697" width="57.9622641509434" height="57.9622641509434" rx="17.38867924528302" fill="#1d1c19"/><rect x="411.5320754716981" y="411.5320754716981" width="200.93584905660376" height="200.93584905660376" rx="56.262037735849056" fill="#f64205"/><g transform="translate(437.6537358490566 468.3890629282175) scale(0.8306845156529987)" fill="#1d1c19"><path d="M72.05 39.8052C72.185 36.7151 72.775 34.2899 73.2849 32.6648C74.2048 29.7297 75.0597 28.7796 75.6197 28.2696C76.1096 27.8246 77.4895 26.5695 79.4643 26.6195C81.2941 26.6695 82.529 27.8096 83.1739 28.4046C84.5688 29.6897 85.0837 31.1498 85.6437 32.7998C86.0736 34.0549 86.5886 36.03 86.6036 38.5702L86.7386 71.8071C86.5736 73.7522 86.2286 75.3373 85.9137 76.4773C85.2287 78.9775 84.5888 79.8125 84.2638 80.1875C83.5889 80.9726 82.804 81.4926 82.479 81.6976C82.059 81.9626 81.4991 82.3027 80.6942 82.5227C80.2342 82.6477 79.0543 82.9527 77.6745 82.5227C76.5446 82.1726 75.8497 81.5126 75.4797 81.1476C74.7048 80.3975 74.3598 79.6675 73.8299 78.5374C73.5399 77.9124 72.98 76.6123 72.595 74.8272C72.385 73.8522 72.185 72.5421 72.185 70.982L72.05 39.8052Z"/><path d="M64.066 35.29C62.8661 24.9244 56.3268 22.3142 46.6277 23.5043C42.8831 23.7843 39.3035 22.9643 35.6338 22.3492C30.3594 21.5392 25.4499 20.8091 20.4104 22.3892C15.9508 24.1293 11.4213 26.7345 8.20159 30.3947C2.46216 36.96 0.697339 46.0256 0.152394 54.5261C-0.412549 62.1265 0.442365 71.047 5.29188 77.5124C9.71643 83.3977 17.2457 88.543 24.8349 88.453C30.5993 88.568 36.7387 87.6579 42.1632 89.8931C45.8478 91.3131 49.8324 95.2484 51.6672 98.6836C52.7771 100.649 53.942 103.674 56.2718 104.254C62.2812 105.299 62.7511 91.4381 63.2461 87.4679C64.9759 74.4222 65.2459 52.2609 64.081 35.375L64.071 35.29H64.066ZM50.0574 58.4113C49.3075 63.6466 46.6627 68.3618 42.6081 71.717C37.0087 76.4973 28.5595 76.1023 22.5152 72.092C17.0107 68.3268 13.4511 61.5064 13.791 54.8511C14.126 47.3206 19.4355 39.8402 26.8597 37.8001C32.3892 36.245 38.4536 37.0551 42.9381 40.8953C48.3376 44.9705 50.9373 51.6309 50.0724 58.3113L50.0574 58.4113Z"/><path d="M178.584 42.9254C177.689 36.4801 174.01 29.1096 167.755 26.0495C164.011 24.1994 158.601 24.1844 154.876 24.0244C148.852 24.0394 142.548 23.6793 136.563 25.0944C133.809 25.7144 131.689 28.4846 134.409 30.8397C136.473 32.7399 139.673 33.6899 142.358 34.765C146.592 36.12 150.617 39.9053 146.572 43.9555C143.713 46.6706 139.738 47.6857 136.353 49.5858C130.569 52.0459 121.16 59.1213 115.36 58.6113C106.756 56.8162 106.146 45.7806 106.506 38.5702C106.636 32.6148 106.871 27.0845 106.601 21.0992C106.016 15.2339 106.456 8.90849 104.227 3.35818C101.187 -2.73717 94.9025 0.248001 94.0476 6.07833C92.5978 16.2489 93.0877 27.1045 92.9727 37.5351C93.0077 49.1408 92.9577 54.7861 92.8027 61.7765C93.0477 67.5818 91.9228 75.9223 96.8123 80.3776C102.112 84.8028 108.446 79.4425 114.261 79.7125C118.315 79.9025 121.795 82.1526 125.374 83.8678C132.889 88.248 141.893 89.4231 150.107 85.8629C157.516 82.5077 166.505 87.653 173.41 82.9377C180.519 78.1374 178.264 64.8667 178.894 57.2962C178.869 52.446 179.159 47.7307 178.594 43.0004L178.584 42.9254ZM161.561 70.407C160.936 73.4022 159.046 76.2073 156.671 78.1374C151.262 82.3127 143.553 79.5575 139.013 75.2723C134.948 71.6421 133.129 65.7167 136.018 60.8114C137.838 57.5713 140.858 54.8611 144.578 54.2111C147.977 53.566 151.707 54.0561 154.622 56.0262C159.206 59.0513 162.776 64.7167 161.581 70.317L161.561 70.407Z"/></g></svg>